PageBot-Light.ufo
<glyph name="dollar" format="2">
  <advance width="488"/>
  <unicode hex="0024"/>
  <outline>
    <contour>
      <point x="237" y="341" type="line"/>
      <point x="237" y="748" type="line"/>
      <point x="265" y="748" type="line"/>
      <point x="265" y="341" type="line"/>
    </contour>
    <contour>
      <point x="237" y="-90" type="line"/>
      <point x="237" y="333" type="line"/>
      <point x="265" y="333" type="line"/>
      <point x="265" y="-90" type="line"/>
    </contour>
    <component base="S" xOffset="-2"/>
  </outline>
</glyph>
<glyph name="quotesingle" format="2">
  <advance width="151"/>
  <unicode hex="0027"/>
  <outline>
    <contour>
      <point x="60" y="560" type="line"/>
      <point x="60" y="724" type="line"/>
      <point x="91" y="724" type="line"/>
      <point x="91" y="560" type="line"/>
    </contour>
  </outline>
</glyph>
<glyph name="parenleft" format="2">
  <advance width="288"/>
  <unicode hex="0028"/>
  <outline>
    <contour>
      <point x="230" y="-220" type="line"/>
      <point x="128" y="-92"/>
      <point x="60" y="82"/>
      <point x="60" y="252" type="curve" smooth="yes"/>
      <point x="60" y="423"/>
      <point x="128" y="596"/>
      <point x="230" y="724" type="curve"/>
      <point x="268" y="724" type="line"/>
      <point x="162" y="592"/>
      <point x="92" y="418"/>
      <point x="92" y="252" type="curve" smooth="yes"/>
      <point x="92" y="85"/>
      <point x="162" y="-88"/>
      <point x="268" y="-220" type="curve"/>
    </contour>
  </outline>
</glyph>
<glyph name="parenright" format="2">
  <advance width="288"/>
  <unicode hex="0029"/>
  <outline>
    <contour>
      <point x="20" y="-220" type="line"/>
      <point x="126" y="-88"/>
      <point x="196" y="85"/>
      <point x="196" y="252" type="curve" smooth="yes"/>
      <point x="196" y="418"/>
      <point x="126" y="592"/>
      <point x="20" y="724" type="curve"/>
      <point x="58" y="724" type="line"/>
      <point x="160" y="596"/>
      <point x="228" y="423"/>
      <point x="228" y="252" type="curve" smooth="yes"/>
      <point x="228" y="82"/>
      <point x="160" y="-92"/>
      <point x="58" y="-220" type="curve"/>
    </contour>
  </outline>
</glyph>
<glyph name="asterisk" format="2">
  <advance width="558"/>
  <unicode hex="002A"/>
  <outline>
    <contour>
      <point x="151" y="80" type="line"/>
      <point x="126" y="98" type="line"/>
      <point x="258" y="278" type="line"/>
      <point x="52" y="343" type="line"/>
      <point x="61" y="372" type="line"/>
      <point x="266" y="303" type="line"/>
      <point x="264" y="519" type="line"/>
      <point x="294" y="519" type="line"/>
      <point x="292" y="303" type="line"/>
      <point x="497" y="372" type="line"/>
      <point x="506" y="343" type="line"/>
      <point x="300" y="278" type="line"/>
      <point x="432" y="98" type="line"/>
      <point x="407" y="80" type="line"/>
      <point x="279" y="263" type="line"/>
    </contour>
  </outline>
</glyph>
<glyph name="plus" format="2">
  <advance width="548"/>
  <unicode hex="002B"/>
  <outline>
    <contour>
      <point x="260" y="66" type="line"/>
      <point x="260" y="273" type="line"/>
      <point x="60" y="273" type="line"/>
      <point x="60" y="301" type="line"/>
      <point x="260" y="301" type="line"/>
      <point x="260" y="508" type="line"/>
      <point x="288" y="508" type="line"/>
      <point x="288" y="301" type="line"/>
      <point x="488" y="301" type="line"/>
      <point x="488" y="273" type="line"/>
      <point x="288" y="273" type="line"/>
      <point x="288" y="66" type="line"/>
    </contour>
  </outline>
</glyph>
<glyph name="comma" format="2">
  <advance width="161"/>
  <unicode hex="002C"/>
  <outline>
    <contour>
      <point x="109" y="61" type="line"/>
      <point x="109" y="5" type="line" smooth="yes"/>
      <point x="109" y="-35"/>
      <point x="99" y="-76"/>
      <point x="65" y="-118" type="curve"/>
      <point x="44" y="-101" type="line"/>
      <point x="70" y="-64"/>
      <point x="78" y="-32"/>
      <point x="78" y="5" type="curve" smooth="yes"/>
      <point x="78" y="61" type="line"/>
    </contour>
  </outline>
</glyph>
<glyph name="period" format="2">
  <advance width="154"/>
  <unicode hex="002E"/>
  <outline>
    <contour>
      <point x="56" y="0" type="line"/>
      <point x="56" y="42" type="line"/>
      <point x="98" y="42" type="line"/>
      <point x="98" y="0" type="line"/>
    </contour>
  </outline>
</glyph>
<glyph name="zero" format="2">
  <advance width="554"/>
  <unicode hex="0030"/>
  <anchor x="271" y="457" name="top"/>
  <outline>
    <contour>
      <point x="277" y="-12" type="curve" smooth="yes"/>
      <point x="128" y="-12"/>
      <point x="56" y="119"/>
      <point x="56" y="327" type="curve" smooth="yes"/>
      <point x="56" y="538"/>
      <point x="128" y="670"/>
      <point x="277" y="670" type="curve" smooth="yes"/>
      <point x="426" y="670"/>
      <point x="498" y="539"/>
      <point x="498" y="329" type="curve" smooth="yes"/>
      <point x="498" y="120"/>
      <point x="426" y="-12"/>
    </contour>
    <contour>
      <point x="277" y="16" type="curve" smooth="yes"/>
      <point x="393" y="16"/>
      <point x="465" y="117"/>
      <point x="465" y="327" type="curve" smooth="yes"/>
      <point x="465" y="540"/>
      <point x="393" y="642"/>
      <point x="277" y="642" type="curve" smooth="yes"/>
      <point x="161" y="642"/>
      <point x="89" y="541"/>
      <point x="89" y="329" type="curve" smooth="yes"/>
      <point x="89" y="118"/>
      <point x="161" y="16"/>
    </contour>
  </outline>
</glyph>
<glyph name="three" format="2">
  <advance width="475"/>
  <unicode hex="0033"/>
  <outline>
    <contour>
      <point x="233" y="-12" type="curve" smooth="yes"/>
      <point x="159" y="-12"/>
      <point x="99" y="12"/>
      <point x="44" y="60" type="curve"/>
      <point x="44" y="101" type="line"/>
      <point x="95" y="48"/>
      <point x="163" y="17"/>
      <point x="233" y="17" type="curve" smooth="yes"/>
      <point x="334" y="17"/>
      <point x="397" y="74"/>
      <point x="398" y="166" type="curve" smooth="yes"/>
      <point x="399" y="270"/>
      <point x="320" y="324"/>
      <point x="186" y="324" type="curve" smooth="yes"/>
      <point x="161" y="324" type="line"/>
      <point x="161" y="354" type="line"/>
      <point x="184" y="354" type="line" smooth="yes"/>
      <point x="310" y="354"/>
      <point x="386" y="410"/>
      <point x="386" y="509" type="curve" smooth="yes"/>
      <point x="386" y="593"/>
      <point x="320" y="641"/>
      <point x="240" y="641" type="curve" smooth="yes"/>
      <point x="175" y="641"/>
      <point x="122" y="619"/>
      <point x="76" y="575" type="curve"/>
      <point x="76" y="613" type="line"/>
      <point x="124" y="652"/>
      <point x="178" y="670"/>
      <point x="240" y="670" type="curve" smooth="yes"/>
      <point x="350" y="670"/>
      <point x="419" y="600"/>
      <point x="419" y="510" type="curve" smooth="yes"/>
      <point x="419" y="415"/>
      <point x="357" y="350"/>
      <point x="245" y="336" type="curve"/>
      <point x="245" y="342" type="line"/>
      <point x="354" y="336"/>
      <point x="431" y="275"/>
      <point x="431" y="167" type="curve" smooth="yes"/>
      <point x="431" y="57"/>
      <point x="355" y="-12"/>
    </contour>
  </outline>
</glyph>
<glyph name="five" format="2">
  <advance width="498"/>
  <unicode hex="0035"/>
  <outline>
    <contour>
      <point x="236" y="-12" type="curve" smooth="yes"/>
      <point x="164" y="-12"/>
      <point x="107" y="11"/>
      <point x="56" y="62" type="curve"/>
      <point x="56" y="105" type="line"/>
      <point x="103" y="48"/>
      <point x="160" y="18"/>
      <point x="236" y="18" type="curve" smooth="yes"/>
      <point x="329" y="18"/>
      <point x="409" y="77"/>
      <point x="409" y="188" type="curve" smooth="yes"/>
      <point x="409" y="294"/>
      <point x="336" y="355"/>
      <point x="220" y="355" type="curve" smooth="yes"/>
      <point x="177" y="355"/>
      <point x="137" y="352"/>
      <point x="83" y="345" type="curve"/>
      <point x="111" y="658" type="line"/>
      <point x="421" y="658" type="line"/>
      <point x="421" y="626" type="line"/>
      <point x="137" y="626" type="line"/>
      <point x="113" y="373" type="line"/>
      <point x="110" y="379" type="line"/>
      <point x="150" y="385"/>
      <point x="184" y="387"/>
      <point x="220" y="387" type="curve" smooth="yes"/>
      <point x="357" y="387"/>
      <point x="442" y="314"/>
      <point x="442" y="190" type="curve" smooth="yes"/>
      <point x="442" y="72"/>
      <point x="360" y="-12"/>
    </contour>
  </outline>
</glyph>
<glyph name="eight" format="2">
  <advance width="501"/>
  <unicode hex="0038"/>
  <outline>
    <contour>
      <point x="250" y="-12" type="curve" smooth="yes"/>
      <point x="131" y="-12"/>
      <point x="56" y="63"/>
      <point x="56" y="156" type="curve" smooth="yes"/>
      <point x="56" y="248"/>
      <point x="124" y="310"/>
      <point x="237" y="348" type="curve" smooth="yes"/>
      <point x="243" y="350" type="line"/>
      <point x="255" y="327" type="line"/>
      <point x="249" y="325" type="line" smooth="yes"/>
      <point x="149" y="292"/>
      <point x="88" y="238"/>
      <point x="88" y="157" type="curve" smooth="yes"/>
      <point x="88" y="80"/>
      <point x="152" y="17"/>
      <point x="250" y="17" type="curve" smooth="yes"/>
      <point x="352" y="17"/>
      <point x="413" y="81"/>
      <point x="413" y="158" type="curve" smooth="yes"/>
      <point x="413" y="235"/>
      <point x="354" y="284"/>
      <point x="259" y="320" type="curve" smooth="yes"/>
      <point x="227" y="332" type="line" smooth="yes"/>
      <point x="130" y="368"/>
      <point x="69" y="420"/>
      <point x="69" y="505" type="curve" smooth="yes"/>
      <point x="69" y="600"/>
      <point x="142" y="670"/>
      <point x="249" y="670" type="curve" smooth="yes"/>
      <point x="358" y="670"/>
      <point x="432" y="601"/>
      <point x="432" y="510" type="curve" smooth="yes"/>
      <point x="432" y="426"/>
      <point x="370" y="366"/>
      <point x="266" y="330" type="curve" smooth="yes"/>
      <point x="260" y="328" type="line"/>
      <point x="248" y="351" type="line"/>
      <point x="254" y="353" type="line" smooth="yes"/>
      <point x="344" y="383"/>
      <point x="399" y="434"/>
      <point x="399" y="509" type="curve" smooth="yes"/>
      <point x="399" y="583"/>
      <point x="337" y="641"/>
      <point x="249" y="641" type="curve" smooth="yes"/>
      <point x="163" y="641"/>
      <point x="101" y="583"/>
      <point x="101" y="506" type="curve" smooth="yes"/>
      <point x="101" y="435"/>
      <point x="155" y="391"/>
      <point x="240" y="360" type="curve" smooth="yes"/>
      <point x="273" y="348" type="line" smooth="yes"/>
      <point x="380" y="309"/>
      <point x="445" y="250"/>
      <point x="445" y="159" type="curve" smooth="yes"/>
      <point x="445" y="64"/>
      <point x="373" y="-12"/>
    </contour>
  </outline>
</glyph>
<glyph name="equal" format="2">
  <advance width="548"/>
  <unicode hex="003D"/>
  <outline>
    <contour>
      <point x="60" y="333" type="line"/>
      <point x="60" y="361" type="line"/>
      <point x="488" y="361" type="line"/>
      <point x="488" y="333" type="line"/>
    </contour>
    <contour>
      <point x="60" y="205" type="line"/>
      <point x="60" y="233" type="line"/>
      <point x="488" y="233" type="line"/>
      <point x="488" y="205" type="line"/>
    </contour>
  </outline>
</glyph>
<glyph name="greater" format="2">
  <advance width="412"/>
  <unicode hex="003E"/>
  <outline>
    <contour>
      <point x="60" y="79" type="line"/>
      <point x="304" y="277" type="line"/>
      <point x="60" y="475" type="line"/>
      <point x="108" y="475" type="line"/>
      <point x="352" y="277" type="line"/>
      <point x="108" y="79" type="line"/>
    </contour>
  </outline>
</glyph>
<glyph name="at" format="2">
  <advance width="783"/>
  <unicode hex="0040"/>
  <outline>
    <contour>
      <point x="381" y="-69" type="curve" smooth="yes"/>
      <point x="199" y="-69"/>
      <point x="44" y="69"/>
      <point x="44" y="275" type="curve" smooth="yes"/>
      <point x="44" y="484"/>
      <point x="203" y="623"/>
      <point x="390" y="623" type="curve" smooth="yes"/>
      <point x="578" y="623"/>
      <point x="739" y="496"/>
      <point x="739" y="306" type="curve" smooth="yes"/>
      <point x="739" y="190"/>
      <point x="689" y="107"/>
      <point x="602" y="107" type="curve" smooth="yes"/>
      <point x="537" y="107"/>
      <point x="483" y="147"/>
      <point x="481" y="247" type="curve"/>
      <point x="489" y="237" type="line"/>
      <point x="464" y="135"/>
      <point x="398" y="107"/>
      <point x="350" y="107" type="curve" smooth="yes"/>
      <point x="270" y="107"/>
      <point x="219" y="162"/>
      <point x="219" y="250" type="curve" smooth="yes"/>
      <point x="219" y="381"/>
      <point x="315" y="463"/>
      <point x="442" y="463" type="curve" smooth="yes"/>
      <point x="469" y="463"/>
      <point x="502" y="460"/>
      <point x="533" y="454" type="curve"/>
      <point x="510" y="272" type="line" smooth="yes"/>
      <point x="499" y="185"/>
      <point x="536" y="135"/>
      <point x="602" y="135" type="curve" smooth="yes"/>
      <point x="672" y="135"/>
      <point x="709" y="205"/>
      <point x="709" y="305" type="curve" smooth="yes"/>
      <point x="709" y="462"/>
      <point x="581" y="595"/>
      <point x="390" y="595" type="curve" smooth="yes"/>
      <point x="200" y="595"/>
      <point x="74" y="448"/>
      <point x="74" y="275" type="curve" smooth="yes"/>
      <point x="74" y="104"/>
      <point x="197" y="-41"/>
      <point x="381" y="-41" type="curve" smooth="yes"/>
      <point x="443" y="-41"/>
      <point x="504" y="-26"/>
      <point x="559" y="4" type="curve"/>
      <point x="559" y="-28" type="line"/>
      <point x="502" y="-55"/>
      <point x="441" y="-69"/>
    </contour>
    <contour>
      <point x="350" y="135" type="curve" smooth="yes"/>
      <point x="397" y="135"/>
      <point x="464" y="148"/>
      <point x="493" y="375" type="curve" smooth="yes"/>
      <point x="500" y="430" type="line"/>
      <point x="482" y="433"/>
      <point x="464" y="435"/>
      <point x="442" y="435" type="curve" smooth="yes"/>
      <point x="334" y="435"/>
      <point x="249" y="364"/>
      <point x="249" y="250" type="curve" smooth="yes"/>
      <point x="249" y="181"/>
      <point x="288" y="135"/>
    </contour>
  </outline>
</glyph>
<glyph name="A" format="2">
  <advance width="603"/>
  <unicode hex="0041"/>
  <anchor x="301" y="642" name="top"/>
  <anchor x="577" y="16" name="ogonek"/>
  <outline>
    <contour>
      <point x="24.0" y="0.0" type="line"/>
      <point x="285.0" y="670.0" type="line"/>
      <point x="317.0" y="670.0" type="line"/>
      <point x="579.0" y="0.0" type="line"/>
      <point x="545.0" y="0.0" type="line"/>
      <point x="448.0" y="249.0" type="line"/>
      <point x="463.0" y="249.0" type="line"/>
      <point x="136.0" y="249.0" type="line"/>
      <point x="152.0" y="249.0" type="line"/>
      <point x="55.0" y="0.0" type="line"/>
    </contour>
    <contour>
      <point x="163" y="278" type="line"/>
      <point x="146" y="278" type="line"/>
      <point x="454" y="278" type="line"/>
      <point x="437" y="278" type="line"/>
      <point x="312" y="598" type="line"/>
      <point x="296" y="641" type="line"/>
      <point x="304" y="641" type="line"/>
      <point x="288" y="598" type="line"/>
    </contour>
  </outline>
</glyph>
<glyph name="F" format="2">
  <advance width="428"/>
  <unicode hex="0046"/>
  <outline>
    <contour>
      <point x="80" y="0" type="line"/>
      <point x="80" y="658" type="line"/>
      <point x="396" y="658" type="line"/>
      <point x="396" y="629" type="line"/>
      <point x="112" y="629" type="line"/>
      <point x="112" y="352" type="line"/>
      <point x="363" y="352" type="line"/>
      <point x="363" y="323" type="line"/>
      <point x="112" y="323" type="line"/>
      <point x="112" y="0" type="line"/>
    </contour>
  </outline>
</glyph>
<glyph name="H" format="2">
  <advance width="111"/>
  <unicode hex="0048"/>
  <anchor x="336" y="642" name="top"/>
  <outline>
    <contour>
      <point x="80" y="0" type="line"/>
      <point x="80" y="658" type="line"/>
      <point x="112" y="658" type="line"/>
      <point x="112" y="354" type="line"/>
      <point x="561" y="354" type="line"/>
      <point x="561" y="658" type="line"/>
      <point x="593" y="658" type="line"/>
      <point x="593" y="0" type="line"/>
      <point x="561" y="0" type="line"/>
      <point x="561" y="325" type="line"/>
      <point x="112" y="325" type="line"/>
      <point x="112" y="0" type="line"/>
    </contour>
  </outline>
</glyph>
<glyph name="I" format="2">
  <advance width="192"/>
  <unicode hex="0049"/>
  <anchor x="96.0" y="642" name="top"/>
  <anchor x="108" y="16" name="ogonek"/>
  <outline>
    <contour>
      <point x="80" y="0" type="line"/>
      <point x="80" y="658" type="line"/>
      <point x="112" y="658" type="line"/>
      <point x="112" y="0" type="line"/>
    </contour>
  </outline>
</glyph>
<glyph name="M" format="2">
  <advance width="737"/>
  <unicode hex="004D"/>
  <outline>
    <contour>
      <point x="80" y="0" type="line"/>
      <point x="80" y="658" type="line"/>
      <point x="122" y="658" type="line"/>
      <point x="353" y="194" type="line"/>
      <point x="377" y="143" type="line"/>
      <point x="358" y="143" type="line"/>
      <point x="382" y="194" type="line"/>
      <point x="612" y="658" type="line"/>
      <point x="657" y="658" type="line"/>
      <point x="657" y="0" type="line"/>
      <point x="625" y="0" type="line"/>
      <point x="625" y="587" type="line"/>
      <point x="625" y="649" type="line"/>
      <point x="640" y="649" type="line"/>
      <point x="610" y="587" type="line"/>
      <point x="380" y="124" type="line"/>
      <point x="354" y="124" type="line"/>
      <point x="124" y="587" type="line"/>
      <point x="93" y="649" type="line"/>
      <point x="109" y="649" type="line"/>
      <point x="109" y="587" type="line"/>
      <point x="109" y="0" type="line"/>
    </contour>
  </outline>
</glyph>
<glyph name="N" format="2">
  <advance width="702"/>
  <unicode hex="004E"/>
  <anchor x="350.0" y="642" name="top"/>
  <anchor x="351" y="16" name="bottom"/>
  <outline>
    <contour>
      <point x="80" y="0" type="line"/>
      <point x="80" y="658" type="line"/>
      <point x="118" y="658" type="line"/>
      <point x="568" y="71" type="line"/>
      <point x="614" y="11" type="line"/>
      <point x="593" y="11" type="line"/>
      <point x="593" y="71" type="line"/>
      <point x="593" y="658" type="line"/>
      <point x="622" y="658" type="line"/>
      <point x="622" y="0" type="line"/>
      <point x="584" y="0" type="line"/>
      <point x="134" y="587" type="line"/>
      <point x="88" y="647" type="line"/>
      <point x="109" y="647" type="line"/>
      <point x="109" y="587" type="line"/>
      <point x="109" y="0" type="line"/>
    </contour>
  </outline>
</glyph>
<glyph name="O" format="2">
  <advance width="778"/>
  <unicode hex="004F"/>
  <anchor x="390" y="650" name="top"/>
  <outline>
    <contour>
      <point x="389" y="-14" type="curve" smooth="yes"/>
      <point x="195" y="-14"/>
      <point x="56" y="125"/>
      <point x="56" y="329" type="curve" smooth="yes"/>
      <point x="56" y="534"/>
      <point x="195" y="672"/>
      <point x="389" y="672" type="curve" smooth="yes"/>
      <point x="584" y="672"/>
      <point x="722" y="534"/>
      <point x="722" y="329" type="curve" smooth="yes"/>
      <point x="722" y="125"/>
      <point x="584" y="-14"/>
    </contour>
    <contour>
      <point x="389" y="15" type="curve" smooth="yes"/>
      <point x="564" y="15"/>
      <point x="689" y="142"/>
      <point x="689" y="329" type="curve" smooth="yes"/>
      <point x="689" y="516"/>
      <point x="564" y="643"/>
      <point x="389" y="643" type="curve" smooth="yes"/>
      <point x="215" y="643"/>
      <point x="89" y="516"/>
      <point x="89" y="329" type="curve" smooth="yes"/>
      <point x="89" y="142"/>
      <point x="215" y="15"/>
    </contour>
  </outline>
</glyph>
<glyph name="P" format="2">
  <advance width="450"/>
  <unicode hex="0050"/>
  <outline>
    <contour>
      <point x="80" y="0" type="line"/>
      <point x="80" y="658" type="line"/>
      <point x="177" y="658" type="line" smooth="yes"/>
      <point x="331.0" y="658.0"/>
      <point x="410.0" y="578.0"/>
      <point x="410" y="459" type="curve" smooth="yes"/>
      <point x="410.0" y="339.0"/>
      <point x="331.0" y="259.0"/>
      <point x="177" y="259" type="curve" smooth="yes"/>
      <point x="112" y="259" type="line"/>
      <point x="112" y="0" type="line"/>
    </contour>
    <contour>
      <point x="112" y="288" type="line"/>
      <point x="177" y="288" type="line" smooth="yes"/>
      <point x="297.0" y="288.0"/>
      <point x="377.0" y="346.0"/>
      <point x="377" y="459" type="curve" smooth="yes"/>
      <point x="377.0" y="571.0"/>
      <point x="297.0" y="629.0"/>
      <point x="176" y="629" type="curve" smooth="yes"/>
      <point x="112" y="629" type="line"/>
    </contour>
  </outline>
</glyph>
<glyph name="S" format="2">
  <advance width="492"/>
  <unicode hex="0053"/>
  <anchor x="254" y="650" name="top"/>
  <anchor x="246" y="16" name="bottom"/>
  <outline>
    <contour>
      <point x="242" y="-16" type="curve" smooth="yes"/>
      <point x="174" y="-16"/>
      <point x="112" y="4"/>
      <point x="60" y="42" type="curve"/>
      <point x="60" y="83" type="line"/>
      <point x="114" y="37"/>
      <point x="176" y="13"/>
      <point x="242" y="13" type="curve" smooth="yes"/>
      <point x="337" y="13"/>
      <point x="401" y="70"/>
      <point x="401" y="155" type="curve" smooth="yes"/>
      <point x="401" y="236"/>
      <point x="358" y="277"/>
      <point x="254" y="320" type="curve" smooth="yes"/>
      <point x="237" y="327" type="line" smooth="yes"/>
      <point x="123" y="374"/>
      <point x="74" y="418"/>
      <point x="74" y="509" type="curve" smooth="yes"/>
      <point x="74" y="608"/>
      <point x="145" y="674"/>
      <point x="257" y="674" type="curve" smooth="yes"/>
      <point x="318" y="674"/>
      <point x="372" y="656"/>
      <point x="417" y="623" type="curve"/>
      <point x="417" y="580" type="line"/>
      <point x="375" y="622"/>
      <point x="321" y="645"/>
      <point x="257" y="645" type="curve" smooth="yes"/>
      <point x="163" y="645"/>
      <point x="105" y="591"/>
      <point x="105" y="509" type="curve" smooth="yes"/>
      <point x="105" y="434"/>
      <point x="147" y="398"/>
      <point x="245" y="358" type="curve" smooth="yes"/>
      <point x="262" y="351" type="line" smooth="yes"/>
      <point x="383" y="301"/>
      <point x="432" y="252"/>
      <point x="432" y="156" type="curve" smooth="yes"/>
      <point x="432" y="53"/>
      <point x="356" y="-16"/>
    </contour>
  </outline>
</glyph>
<glyph name="U" format="2">
  <advance width="661"/>
  <unicode hex="0055"/>
  <anchor x="332" y="642" name="top"/>
  <outline>
    <contour>
      <point x="330" y="-12" type="curve" smooth="yes"/>
      <point x="178" y="-12"/>
      <point x="76" y="97"/>
      <point x="76" y="260" type="curve" smooth="yes"/>
      <point x="76" y="658" type="line"/>
      <point x="108" y="658" type="line"/>
      <point x="108" y="260" type="line" smooth="yes"/>
      <point x="108" y="115"/>
      <point x="197" y="19"/>
      <point x="330" y="19" type="curve" smooth="yes"/>
      <point x="466" y="19"/>
      <point x="554" y="115"/>
      <point x="554" y="260" type="curve" smooth="yes"/>
      <point x="554" y="658" type="line"/>
      <point x="585" y="658" type="line"/>
      <point x="585" y="260" type="line" smooth="yes"/>
      <point x="585" y="97"/>
      <point x="484" y="-12"/>
    </contour>
  </outline>
</glyph>
<glyph name="V" format="2">
  <advance width="600"/>
  <unicode hex="0056"/>
  <outline>
    <contour>
      <point x="283" y="0" type="line"/>
      <point x="20" y="658" type="line"/>
      <point x="54" y="658" type="line"/>
      <point x="288" y="71" type="line"/>
      <point x="310" y="16" type="line"/>
      <point x="293" y="16" type="line"/>
      <point x="315" y="71" type="line"/>
      <point x="549" y="658" type="line"/>
      <point x="580" y="658" type="line"/>
      <point x="317" y="0" type="line"/>
    </contour>
  </outline>
</glyph>
<glyph name="W" format="2">
  <advance width="912"/>
  <unicode hex="0057"/>
  <anchor x="458" y="642" name="top"/>
  <outline>
    <contour>
      <point x="229" y="0" type="line"/>
      <point x="20" y="658" type="line"/>
      <point x="53" y="658" type="line"/>
      <point x="240" y="71" type="line"/>
      <point x="256" y="20" type="line"/>
      <point x="239" y="20" type="line"/>
      <point x="255" y="71" type="line"/>
      <point x="442" y="658" type="line"/>
      <point x="474" y="658" type="line"/>
      <point x="661" y="71" type="line"/>
      <point x="677" y="20" type="line"/>
      <point x="660" y="20" type="line"/>
      <point x="676" y="71" type="line"/>
      <point x="863" y="658" type="line"/>
      <point x="892" y="658" type="line"/>
      <point x="683" y="0" type="line"/>
      <point x="650" y="0" type="line"/>
      <point x="465" y="588" type="line"/>
      <point x="445" y="653" type="line"/>
      <point x="468" y="653" type="line"/>
      <point x="448" y="588" type="line"/>
      <point x="263" y="0" type="line"/>
    </contour>
  </outline>
</glyph>
<glyph name="X" format="2">
  <advance width="570"/>
  <unicode hex="0058"/>
  <outline>
    <contour>
      <point x="36" y="0" type="line"/>
      <point x="271" y="345" type="line"/>
      <point x="278" y="355" type="line"/>
      <point x="307" y="398" type="line"/>
      <point x="484" y="658" type="line"/>
      <point x="517" y="658" type="line"/>
      <point x="295" y="332" type="line"/>
      <point x="288" y="322" type="line"/>
      <point x="260" y="281" type="line"/>
      <point x="70" y="0" type="line"/>
    </contour>
    <contour>
      <point x="498" y="0" type="line"/>
      <point x="304" y="281" type="line"/>
      <point x="276" y="321" type="line"/>
      <point x="270" y="330" type="line"/>
      <point x="50" y="658" type="line"/>
      <point x="86" y="658" type="line"/>
      <point x="261" y="398" type="line"/>
      <point x="288" y="357" type="line"/>
      <point x="294" y="348" type="line"/>
      <point x="534" y="0" type="line"/>
    </contour>
  </outline>
</glyph>
<glyph name="Y" format="2">
  <advance width="542"/>
  <unicode hex="0059"/>
  <anchor x="271" y="642" name="top"/>
  <outline>
    <contour>
      <point x="254" y="0" type="line"/>
      <point x="254" y="314" type="line"/>
      <point x="265" y="289" type="line"/>
      <point x="16" y="658" type="line"/>
      <point x="54" y="658" type="line"/>
      <point x="250" y="368" type="line"/>
      <point x="282" y="320" type="line"/>
      <point x="262" y="320" type="line"/>
      <point x="294" y="368" type="line"/>
      <point x="490" y="658" type="line"/>
      <point x="526" y="658" type="line"/>
      <point x="276" y="289" type="line"/>
      <point x="286" y="314" type="line"/>
      <point x="286" y="0" type="line"/>
    </contour>
  </outline>
</glyph>
<glyph name="Z" format="2">
  <advance width="587"/>
  <unicode hex="005A"/>
  <anchor x="298" y="642" name="top"/>
  <outline>
    <contour>
      <point x="60" y="0" type="line"/>
      <point x="60" y="18" type="line"/>
      <point x="457" y="597" type="line"/>
      <point x="494" y="651" type="line"/>
      <point x="494" y="629" type="line"/>
      <point x="63" y="629" type="line"/>
      <point x="63" y="658" type="line"/>
      <point x="527" y="658" type="line"/>
      <point x="527" y="643" type="line"/>
      <point x="128" y="61" type="line"/>
      <point x="94" y="11" type="line"/>
      <point x="94" y="29" type="line"/>
      <point x="527" y="29" type="line"/>
      <point x="527" y="0" type="line"/>
    </contour>
  </outline>
</glyph>
<glyph name="bracketleft" format="2">
  <advance width="317"/>
  <unicode hex="005B"/>
  <outline>
    <contour>
      <point x="100" y="-220" type="line"/>
      <point x="100" y="724" type="line"/>
      <point x="277" y="724" type="line"/>
      <point x="277" y="696" type="line"/>
      <point x="132" y="696" type="line"/>
      <point x="132" y="-192" type="line"/>
      <point x="277" y="-192" type="line"/>
      <point x="277" y="-220" type="line"/>
    </contour>
  </outline>
</glyph>
<glyph name="underscore" format="2">
  <advance width="350"/>
  <unicode hex="005F"/>
  <outline>
    <contour>
      <point x="0" y="-220" type="line"/>
      <point x="0" y="-191" type="line"/>
      <point x="350" y="-191" type="line"/>
      <point x="350" y="-220" type="line"/>
    </contour>
  </outline>
</glyph>
<glyph name="b" format="2">
  <advance width="502"/>
  <unicode hex="0062"/>
  <outline>
    <contour>
      <point x="230" y="-10" type="curve" smooth="yes"/>
      <point x="175" y="-10"/>
      <point x="125" y="-1"/>
      <point x="76" y="17" type="curve"/>
      <point x="76" y="724" type="line"/>
      <point x="107" y="724" type="line"/>
      <point x="107" y="414" type="line"/>
      <point x="141" y="451"/>
      <point x="194" y="472"/>
      <point x="246" y="472" type="curve" smooth="yes"/>
      <point x="369" y="472"/>
      <point x="450" y="382"/>
      <point x="450" y="236" type="curve" smooth="yes"/>
      <point x="450" y="84"/>
      <point x="363" y="-10"/>
    </contour>
    <contour>
      <point x="230" y="18" type="curve" smooth="yes"/>
      <point x="343" y="18"/>
      <point x="418" y="101"/>
      <point x="418" y="235" type="curve" smooth="yes"/>
      <point x="418" y="365"/>
      <point x="350" y="444"/>
      <point x="246" y="444" type="curve" smooth="yes"/>
      <point x="190" y="444"/>
      <point x="147" y="425"/>
      <point x="107" y="382" type="curve"/>
      <point x="107" y="38" type="line"/>
      <point x="148" y="24"/>
      <point x="186" y="18"/>
    </contour>
  </outline>
</glyph>
<glyph name="c" format="2">
  <advance width="470"/>
  <unicode hex="0063"/>
  <anchor x="277" y="446" name="top"/>
  <anchor x="255" y="16" name="bottom"/>
  <outline>
    <contour>
      <point x="282" y="-10" type="curve" smooth="yes"/>
      <point x="144" y="-10"/>
      <point x="52" y="83"/>
      <point x="52" y="229" type="curve" smooth="yes"/>
      <point x="52" y="382"/>
      <point x="139" y="472"/>
      <point x="277" y="472" type="curve" smooth="yes"/>
      <point x="329" y="472"/>
      <point x="377" y="459"/>
      <point x="426" y="432" type="curve"/>
      <point x="426" y="396" type="line"/>
      <point x="375" y="429"/>
      <point x="332" y="443"/>
      <point x="277" y="443" type="curve" smooth="yes"/>
      <point x="157" y="443"/>
      <point x="84" y="366"/>
      <point x="84" y="230" type="curve" smooth="yes"/>
      <point x="84" y="100"/>
      <point x="162" y="19"/>
      <point x="282" y="19" type="curve" smooth="yes"/>
      <point x="336" y="19"/>
      <point x="382" y="36"/>
      <point x="423" y="69" type="curve"/>
      <point x="423" y="33" type="line"/>
      <point x="380" y="4"/>
      <point x="334" y="-10"/>
    </contour>
  </outline>
</glyph>
<glyph name="d" format="2">
  <advance width="511"/>
  <unicode hex="0064"/>
  <anchor x="539" y="708" name="caron.vert"/>
  <outline>
    <contour>
      <point x="259" y="-10" type="curve" smooth="yes"/>
      <point x="139" y="-10"/>
      <point x="52" y="69"/>
      <point x="52" y="231" type="curve" smooth="yes"/>
      <point x="52" y="391"/>
      <point x="142" y="472"/>
      <point x="261" y="472" type="curve" smooth="yes"/>
      <point x="314" y="472"/>
      <point x="361" y="455"/>
      <point x="404" y="423" type="curve"/>
      <point x="404" y="724" type="line"/>
      <point x="435" y="724" type="line"/>
      <point x="435" y="0" type="line"/>
      <point x="408" y="0" type="line"/>
      <point x="404" y="64" type="line"/>
      <point x="370" y="15"/>
      <point x="317" y="-10"/>
    </contour>
    <contour>
      <point x="259" y="18" type="curve" smooth="yes"/>
      <point x="326" y="18"/>
      <point x="378" y="54"/>
      <point x="404" y="109" type="curve"/>
      <point x="404" y="389" type="line"/>
      <point x="362" y="425"/>
      <point x="315" y="444"/>
      <point x="261" y="444" type="curve" smooth="yes"/>
      <point x="151" y="444"/>
      <point x="84" y="360"/>
      <point x="84" y="232" type="curve" smooth="yes"/>
      <point x="84" y="101"/>
      <point x="148" y="18"/>
    </contour>
  </outline>
</glyph>
<glyph name="h" format="2">
  <advance width="485"/>
  <unicode hex="0068"/>
  <anchor x="91" y="647" name="top"/>
  <outline>
    <contour>
      <point x="76" y="0" type="line"/>
      <point x="76" y="724" type="line"/>
      <point x="107" y="724" type="line"/>
      <point x="107" y="398" type="line"/>
      <point x="140" y="443"/>
      <point x="195" y="472"/>
      <point x="251" y="472" type="curve" smooth="yes"/>
      <point x="359" y="472"/>
      <point x="413" y="406"/>
      <point x="413" y="307" type="curve" smooth="yes"/>
      <point x="413" y="0" type="line"/>
      <point x="382" y="0" type="line"/>
      <point x="382" y="303" type="line" smooth="yes"/>
      <point x="382" y="397"/>
      <point x="331" y="444"/>
      <point x="251" y="444" type="curve" smooth="yes"/>
      <point x="191" y="444"/>
      <point x="137" y="410"/>
      <point x="107" y="360" type="curve"/>
      <point x="107" y="0" type="line"/>
    </contour>
  </outline>
</glyph>
<glyph name="l" format="2">
  <advance width="183"/>
  <unicode hex="006C"/>
  <anchor x="93" y="708" name="top"/>
  <anchor x="219" y="708" name="caron.vert"/>
  <anchor x="92" y="16" name="bottom"/>
  <outline>
    <contour>
      <point x="76" y="0" type="line"/>
      <point x="76" y="724" type="line"/>
      <point x="107" y="724" type="line"/>
      <point x="107" y="0" type="line"/>
    </contour>
  </outline>
</glyph>
<glyph name="m" format="2">
  <advance width="783"/>
  <unicode hex="006D"/>
  <outline>
    <contour>
      <point x="76" y="0" type="line"/>
      <point x="76" y="462" type="line"/>
      <point x="107" y="462" type="line"/>
      <point x="107" y="398" type="line"/>
      <point x="140" y="443"/>
      <point x="192" y="472"/>
      <point x="248" y="472" type="curve" smooth="yes"/>
      <point x="335" y="472"/>
      <point x="382" y="427"/>
      <point x="399" y="374" type="curve"/>
      <point x="434" y="446"/>
      <point x="490" y="472"/>
      <point x="550" y="472" type="curve" smooth="yes"/>
      <point x="649" y="472"/>
      <point x="711" y="409"/>
      <point x="711" y="310" type="curve" smooth="yes"/>
      <point x="711" y="0" type="line"/>
      <point x="680" y="0" type="line"/>
      <point x="680" y="305" type="line" smooth="yes"/>
      <point x="680" y="390"/>
      <point x="631" y="444"/>
      <point x="550" y="444" type="curve" smooth="yes"/>
      <point x="493" y="444"/>
      <point x="440" y="417"/>
      <point x="409" y="338" type="curve"/>
      <point x="409" y="0" type="line"/>
      <point x="378" y="0" type="line"/>
      <point x="378" y="309" type="line" smooth="yes"/>
      <point x="378" y="390"/>
      <point x="331" y="444"/>
      <point x="248" y="444" type="curve" smooth="yes"/>
      <point x="191" y="444"/>
      <point x="138" y="411"/>
      <point x="107" y="360" type="curve"/>
      <point x="107" y="0" type="line"/>
    </contour>
  </outline>
</glyph>
<glyph name="n" format="2">
  <advance width="485"/>
  <unicode hex="006E"/>
  <anchor x="245" y="446" name="top"/>
  <anchor x="243" y="16" name="bottom"/>
  <outline>
    <contour>
      <point x="76" y="0" type="line"/>
      <point x="76" y="462" type="line"/>
      <point x="107" y="462" type="line"/>
      <point x="107" y="398" type="line"/>
      <point x="140" y="443"/>
      <point x="195" y="472"/>
      <point x="251" y="472" type="curve" smooth="yes"/>
      <point x="359" y="472"/>
      <point x="413" y="406"/>
      <point x="413" y="307" type="curve" smooth="yes"/>
      <point x="413" y="0" type="line"/>
      <point x="382" y="0" type="line"/>
      <point x="382" y="303" type="line" smooth="yes"/>
      <point x="382" y="397"/>
      <point x="331" y="444"/>
      <point x="251" y="444" type="curve" smooth="yes"/>
      <point x="191" y="444"/>
      <point x="137" y="410"/>
      <point x="107" y="360" type="curve"/>
      <point x="107" y="0" type="line"/>
    </contour>
  </outline>
</glyph>
<glyph name="o" format="2">
  <advance width="563"/>
  <unicode hex="006F"/>
  <anchor x="282" y="446" name="top"/>
  <outline>
    <contour>
      <point x="282" y="-10" type="curve" smooth="yes"/>
      <point x="144" y="-10"/>
      <point x="52" y="86"/>
      <point x="52" y="230" type="curve" smooth="yes"/>
      <point x="52" y="375"/>
      <point x="144" y="472"/>
      <point x="282" y="472" type="curve" smooth="yes"/>
      <point x="419" y="472"/>
      <point x="511" y="376"/>
      <point x="511" y="231" type="curve" smooth="yes"/>
      <point x="511" y="86"/>
      <point x="419" y="-10"/>
    </contour>
    <contour>
      <point x="282" y="18" type="curve" smooth="yes"/>
      <point x="400" y="18"/>
      <point x="479" y="103"/>
      <point x="479" y="230" type="curve" smooth="yes"/>
      <point x="479" y="358"/>
      <point x="400" y="444"/>
      <point x="282" y="444" type="curve" smooth="yes"/>
      <point x="163" y="444"/>
      <point x="84" y="359"/>
      <point x="84" y="231" type="curve" smooth="yes"/>
      <point x="84" y="103"/>
      <point x="163" y="18"/>
    </contour>
  </outline>
</glyph>
<glyph name="q" format="2">
  <advance width="507"/>
  <unicode hex="0071"/>
  <outline>
    <contour>
      <point x="404" y="-220" type="line"/>
      <point x="404" y="64" type="line"/>
      <point x="370" y="15"/>
      <point x="315" y="-10"/>
      <point x="257" y="-10" type="curve" smooth="yes"/>
      <point x="135" y="-10"/>
      <point x="52" y="71"/>
      <point x="52" y="231" type="curve" smooth="yes"/>
      <point x="52" y="391"/>
      <point x="142" y="472"/>
      <point x="259" y="472" type="curve" smooth="yes"/>
      <point x="312" y="472"/>
      <point x="370" y="450"/>
      <point x="404" y="416" type="curve"/>
      <point x="408" y="462" type="line"/>
      <point x="435" y="462" type="line"/>
      <point x="435" y="-220" type="line"/>
    </contour>
    <contour>
      <point x="257" y="18" type="curve" smooth="yes"/>
      <point x="324" y="18"/>
      <point x="378" y="54"/>
      <point x="404" y="109" type="curve"/>
      <point x="404" y="378" type="line"/>
      <point x="374" y="419"/>
      <point x="313" y="444"/>
      <point x="259" y="444" type="curve" smooth="yes"/>
      <point x="151" y="444"/>
      <point x="84" y="360"/>
      <point x="84" y="232" type="curve" smooth="yes"/>
      <point x="84" y="102"/>
      <point x="144" y="18"/>
    </contour>
  </outline>
</glyph>
<glyph name="r" format="2">
  <advance width="295"/>
  <unicode hex="0072"/>
  <anchor x="177" y="446" name="top"/>
  <anchor x="92" y="16" name="bottom"/>
  <outline>
    <contour>
      <point x="76" y="0" type="line"/>
      <point x="76" y="462" type="line"/>
      <point x="107" y="462" type="line"/>
      <point x="107" y="396" type="line"/>
      <point x="123" y="442"/>
      <point x="172" y="472"/>
      <point x="218" y="472" type="curve" smooth="yes"/>
      <point x="241" y="472"/>
      <point x="262" y="469"/>
      <point x="283" y="461" type="curve"/>
      <point x="283" y="423" type="line"/>
      <point x="262" y="433"/>
      <point x="240" y="439"/>
      <point x="216" y="439" type="curve" smooth="yes"/>
      <point x="163" y="439"/>
      <point x="123" y="403"/>
      <point x="107" y="354" type="curve"/>
      <point x="107" y="0" type="line"/>
    </contour>
  </outline>
</glyph>
<glyph name="u" format="2">
  <advance width="486"/>
  <unicode hex="0075"/>
  <anchor x="243" y="446" name="top"/>
  <anchor x="409" y="16" name="ogonek"/>
  <outline>
    <contour>
      <point x="236" y="-10" type="curve" smooth="yes"/>
      <point x="128" y="-10"/>
      <point x="76" y="60"/>
      <point x="76" y="159" type="curve" smooth="yes"/>
      <point x="76" y="462" type="line"/>
      <point x="107" y="462" type="line"/>
      <point x="107" y="159" type="line" smooth="yes"/>
      <point x="107" y="67"/>
      <point x="156" y="18"/>
      <point x="236" y="18" type="curve" smooth="yes"/>
      <point x="305" y="18"/>
      <point x="355" y="56"/>
      <point x="379" y="109" type="curve"/>
      <point x="379" y="462" type="line"/>
      <point x="410" y="462" type="line"/>
      <point x="410" y="0" type="line"/>
      <point x="383" y="0" type="line"/>
      <point x="379" y="64" type="line"/>
      <point x="348" y="16"/>
      <point x="300" y="-10"/>
    </contour>
  </outline>
</glyph>
<glyph name="w" format="2">
  <advance width="711"/>
  <unicode hex="0077"/>
  <anchor x="358" y="446" name="top"/>
  <outline>
    <contour>
      <point x="182" y="0" type="line"/>
      <point x="22" y="462" type="line"/>
      <point x="55" y="462" type="line"/>
      <point x="190" y="71" type="line"/>
      <point x="207" y="21" type="line"/>
      <point x="189" y="21" type="line"/>
      <point x="206" y="71" type="line"/>
      <point x="341" y="462" type="line"/>
      <point x="373" y="462" type="line"/>
      <point x="508" y="71" type="line"/>
      <point x="525" y="21" type="line"/>
      <point x="507" y="21" type="line"/>
      <point x="524" y="71" type="line"/>
      <point x="659" y="462" type="line"/>
      <point x="689" y="462" type="line"/>
      <point x="529" y="0" type="line"/>
      <point x="500" y="0" type="line"/>
      <point x="365" y="391" type="line"/>
      <point x="348" y="441" type="line"/>
      <point x="364" y="441" type="line"/>
      <point x="347" y="391" type="line"/>
      <point x="210" y="0" type="line"/>
    </contour>
  </outline>
</glyph>
<glyph name="y" format="2">
  <advance width="443"/>
  <unicode hex="0079"/>
  <anchor x="221" y="446" name="top"/>
  <outline>
    <contour>
      <point x="-2" y="-220" type="curve" smooth="yes"/>
      <point x="-10" y="-220" type="line"/>
      <point x="-10" y="-191" type="line"/>
      <point x="-2" y="-191" type="line" smooth="yes"/>
      <point x="79" y="-191"/>
      <point x="140" y="-144"/>
      <point x="209" y="13" type="curve"/>
      <point x="214" y="-18" type="line"/>
      <point x="198" y="20" type="line"/>
      <point x="18" y="462" type="line"/>
      <point x="51" y="462" type="line"/>
      <point x="210" y="71" type="line"/>
      <point x="230" y="20" type="line"/>
      <point x="211" y="20" type="line"/>
      <point x="231" y="71" type="line"/>
      <point x="390" y="462" type="line"/>
      <point x="421" y="462" type="line"/>
      <point x="232" y="-1" type="line" smooth="yes"/>
      <point x="164" y="-166"/>
      <point x="90" y="-220"/>
    </contour>
  </outline>
</glyph>
<glyph name="z" format="2">
  <advance width="420"/>
  <unicode hex="007A"/>
  <anchor x="207" y="446" name="top"/>
  <outline>
    <contour>
      <point x="44" y="0" type="line"/>
      <point x="44" y="19" type="line"/>
      <point x="311" y="410" type="line"/>
      <point x="340" y="452" type="line"/>
      <point x="340" y="433" type="line"/>
      <point x="48" y="433" type="line"/>
      <point x="48" y="462" type="line"/>
      <point x="371" y="462" type="line"/>
      <point x="371" y="443" type="line"/>
      <point x="104" y="52" type="line"/>
      <point x="75" y="10" type="line"/>
      <point x="75" y="29" type="line"/>
      <point x="376" y="29" type="line"/>
      <point x="376" y="0" type="line"/>
    </contour>
  </outline>
</glyph>
